<svg width="20" height="20" viewBox="0 0 20 20" fill="none" xmlns="http://www.w3.org/2000/svg">
<path d="M6.66667 6.66667C4.82639 6.66667 3.25521 7.31771 1.95312 8.61979C0.651042 9.92188 0 11.4931 0 13.3333C0 15.1736 0.651042 16.7448 1.95312 18.0469C3.25521 19.349 4.82639 20 6.66667 20C8.50694 20 10.0781 19.349 11.3802 18.0469C12.6823 16.7448 13.3333 15.1736 13.3333 13.3333C13.3333 12.1181 13.0252 10.9896 12.4089 9.94792L16.6667 5.6901V10.8333H20V0H9.16667V3.34635H14.2969L10.0521 7.59115C9.01042 6.97483 7.88194 6.66667 6.66667 6.66667ZM6.66667 10C7.58681 10 8.3724 10.3255 9.02344 10.9766C9.67448 11.6276 10 12.4132 10 13.3333C10 14.2535 9.67448 15.0391 9.02344 15.6901C8.3724 16.3411 7.58681 16.6667 6.66667 16.6667C5.74653 16.6667 4.96094 16.3411 4.3099 15.6901C3.65885 15.0391 3.33333 14.2535 3.33333 13.3333C3.33333 12.4132 3.65885 11.6276 4.3099 10.9766C4.96094 10.3255 5.74653 10 6.66667 10Z" fill="white" fill-opacity="0.56"/>
</svg>
